<svg width="414" height="124" viewBox="0 0 414 124" fill="none" xmlns="http://www.w3.org/2000/svg">
<path fill-rule="evenodd" clip-rule="evenodd" d="M0 37.2L5.175 47.5333C10.695 57.8667 21.39 78.5333 31.74 74.4C42.435 70.2667 53.13 41.3333 63.825 43.4C74.175 45.4667 84.87 78.5333 95.565 78.5333C106.26 78.5333 116.61 45.4667 127.305 47.5333C138 49.6 148.695 86.8 159.39 105.4C169.74 124 180.435 124 191.13 109.533C201.825 95.0667 212.175 66.1333 222.87 49.6C233.565 33.0667 244.26 28.9333 254.61 35.1333C265.305 41.3333 276 57.8667 286.695 62C297.39 66.1333 307.74 57.8667 318.435 47.5333C329.13 37.2 339.825 24.8 350.175 33.0667C360.87 41.3333 371.565 70.2667 382.26 68.2C392.61 66.1333 403.305 33.0667 408.825 16.5333L414 0V124H408.825C403.305 124 392.61 124 382.26 124C371.565 124 360.87 124 350.175 124C339.825 124 329.13 124 318.435 124C307.74 124 297.39 124 286.695 124C276 124 265.305 124 254.61 124C244.26 124 233.565 124 222.87 124C212.175 124 201.825 124 191.13 124C180.435 124 169.74 124 159.39 124C148.695 124 138 124 127.305 124C116.61 124 106.26 124 95.565 124C84.87 124 74.175 124 63.825 124C53.13 124 42.435 124 31.74 124C21.39 124 10.695 124 5.175 124H0V37.2Z" fill="#0099FF"/>
</svg>
